<svg width="28" height="28" viewBox="0 0 28 28" fill="none" xmlns="http://www.w3.org/2000/svg">
<path d="M25.0303 2.96967C26.4278 4.36713 26.4278 6.63286 25.0303 8.03033L13.062 19.9987C12.7851 20.2755 12.4408 20.4754 12.063 20.5784L6.94731 21.9736C6.38744 22.1263 5.87371 21.6125 6.0264 21.0527L7.42159 15.937C7.52462 15.5592 7.72444 15.2149 8.00132 14.938L19.9696 2.96967C21.3671 1.5722 23.6328 1.5722 25.0303 2.96967ZM19.0001 6.06057L9.06198 15.9987C8.96969 16.0909 8.90308 16.2057 8.86874 16.3316L7.81889 20.1811L11.6683 19.1312C11.7942 19.0969 11.909 19.0303 12.0013 18.938L21.9391 8.99957L19.0001 6.06057ZM21.0303 4.03033L20.0601 4.99957L22.9991 7.93957L23.9696 6.96967C24.7813 6.15799 24.7813 4.842 23.9696 4.03033C23.158 3.21865 21.842 3.21865 21.0303 4.03033Z" fill="#212121"/>
<path d="M8.5 16C9.5 16 12 16.5 12 19.5001" stroke="#212121" stroke-width="1.5"/>
<rect x="1" y="24" width="26" height="4" rx="1" fill="#FEFE56"/>
</svg>
