<svg width="24" height="24" viewBox="0 0 24 24" fill="none" xmlns="http://www.w3.org/2000/svg">
<path fill-rule="evenodd" clip-rule="evenodd" d="M12 23.5C18.3513 23.5 23.5 18.3513 23.5 12C23.5 5.64873 18.3513 0.5 12 0.5C5.64873 0.5 0.5 5.64873 0.5 12C0.5 18.3513 5.64873 23.5 12 23.5ZM12 22.5C12.3573 22.5 12.7779 22.3377 13.2489 21.8795C13.7246 21.4168 14.1987 20.6985 14.6185 19.733C15.0689 18.6971 15.4341 17.4286 15.6757 16H8.3243C8.56587 17.4286 8.93113 18.6971 9.38154 19.733C9.80133 20.6985 10.2754 21.4168 10.7511 21.8795C11.2221 22.3377 11.6427 22.5 12 22.5ZM21.7112 16C20.4173 19.138 17.6467 21.5115 14.265 22.2551C15.3781 20.952 16.2507 18.7185 16.6892 16H21.7112ZM22.0652 15H16.8282C16.9402 14.0436 17 13.0379 17 12C17 10.9621 16.9402 9.95641 16.8282 9H22.0652C22.3481 9.95056 22.5 10.9575 22.5 12C22.5 13.0425 22.3481 14.0494 22.0652 15ZM21.7112 8H16.6892C16.2507 5.28152 15.3781 3.04802 14.265 1.74493C17.6467 2.48846 20.4173 4.86203 21.7112 8ZM9.73495 22.2551C8.6219 20.952 7.74928 18.7185 7.31076 16H2.28878C3.5827 19.138 6.3533 21.5115 9.73495 22.2551ZM1.93482 15H7.17184C7.05978 14.0436 7 13.0379 7 12C7 10.9621 7.05978 9.95641 7.17184 9H1.93482C1.65192 9.95056 1.5 10.9575 1.5 12C1.5 13.0425 1.65192 14.0494 1.93482 15ZM2.28878 8H7.31076C7.74928 5.28152 8.6219 3.04802 9.73495 1.74493C6.3533 2.48846 3.5827 4.86203 2.28878 8ZM12 1.5C12.3573 1.5 12.7779 1.66233 13.2489 2.12051C13.7246 2.58323 14.1987 3.30146 14.6185 4.267C15.0689 5.30294 15.4341 6.57142 15.6757 8H8.3243C8.56587 6.57142 8.93113 5.30294 9.38154 4.267C9.80133 3.30146 10.2754 2.58323 10.7511 2.12051C11.2221 1.66233 11.6427 1.5 12 1.5ZM16 12C16 13.0453 15.9371 14.0515 15.821 15H8.17896C8.06292 14.0515 8 13.0453 8 12C8 10.9547 8.06292 9.94853 8.17896 9H15.821C15.9371 9.94853 16 10.9547 16 12Z" fill="white"/>
</svg>
