<svg width="26" height="14" viewBox="0 0 26 14" fill="none" xmlns="http://www.w3.org/2000/svg">
<path d="M1.67572 1.26285C1.26861 0.889653 0.636038 0.917156 0.262846 1.32428C-0.110347 1.73139 -0.0828436 2.36396 0.324275 2.73715L1.67572 1.26285ZM13 13L12.3243 13.7372C12.7066 14.0876 13.2934 14.0876 13.6757 13.7372L13 13ZM25.6757 2.73715C26.0828 2.36396 26.1103 1.73139 25.7372 1.32428C25.364 0.917156 24.7314 0.889653 24.3243 1.26285L25.6757 2.73715ZM0.324275 2.73715L12.3243 13.7372L13.6757 12.2628L1.67572 1.26285L0.324275 2.73715ZM13.6757 13.7372L25.6757 2.73715L24.3243 1.26285L12.3243 12.2628L13.6757 13.7372Z" fill="white"/>
</svg>
