<svg width="14" height="14" viewBox="0 0 14 14" fill="none" xmlns="http://www.w3.org/2000/svg">
<path fill-rule="evenodd" clip-rule="evenodd" d="M6.85813 13.2876C10.5098 13.2876 13.47 10.3274 13.47 6.67573C13.47 3.02407 10.5098 0.0638428 6.85813 0.0638428C3.20569 0.0638428 0.245468 3.02407 0.245468 6.67573C0.245468 10.3274 3.20569 13.2876 6.85813 13.2876ZM6.83177 9.52337C7.8211 9.52337 8.74121 9.18037 9.50577 8.59315C9.7601 8.39793 9.99732 8.17626 10.2135 7.93048L10.8187 8.37848C9.80832 9.54826 8.39588 10.2794 6.83177 10.2794C5.29488 10.2794 3.90343 9.57626 2.89699 8.44304L3.53399 8.01837C4.39499 8.94781 5.55465 9.52337 6.83177 9.52337ZM5.34193 4.23828C5.34193 4.88228 4.95071 5.40417 4.46771 5.40417C3.98393 5.40417 3.59271 4.88228 3.59271 4.23828C3.59271 3.59428 3.98393 3.07239 4.46771 3.07239C4.95071 3.07239 5.34193 3.59428 5.34193 4.23828ZM9.00278 5.40417C9.48578 5.40417 9.877 4.88228 9.877 4.23828C9.877 3.59428 9.48578 3.07239 9.00278 3.07239C8.519 3.07239 8.12778 3.59428 8.12778 4.23828C8.12778 4.88228 8.519 5.40417 9.00278 5.40417Z" fill="white"/>
</svg>
